<svg width="104" height="53" viewBox="0 0 104 53" fill="none" xmlns="http://www.w3.org/2000/svg">
<g clip-path="url(#clip0_110_13126)">
<path d="M71.9531 46.6698L70.7424 48.5687L71.4476 46.0966C69.9586 44.5467 67.8973 43.4128 67.8973 43.4128C67.8973 43.4128 65.3591 47.5744 66.0423 50.1343C66.7254 52.6942 68.4894 53.1829 70.3712 52.6831C72.253 52.1833 73.5399 50.8844 72.8568 48.3245C72.7047 47.7547 72.3744 47.1953 71.9531 46.6698Z" fill="#F2F2F2"/>
<path d="M70.3512 48.7579L70.3849 48.8841C70.7688 50.3528 70.8262 51.5631 70.5547 52.4981C70.551 52.5118 70.5465 52.525 70.5428 52.5387L70.4795 52.5201L70.4188 52.5014C70.7264 51.4879 70.5891 50.2072 70.2546 48.9261C70.2442 48.8847 70.2337 48.8427 70.2219 48.801C70.0755 48.2599 69.8961 47.7209 69.7008 47.2028C69.6861 47.1626 69.6705 47.1219 69.655 47.0812C69.3937 46.3987 69.1082 45.7561 68.8437 45.2022C68.8252 45.163 68.8061 45.1239 68.7871 45.0855C68.3356 44.1498 67.9528 43.4869 67.8668 43.3405C67.8566 43.3224 67.8507 43.3126 67.8494 43.3103L67.9044 43.2776L67.9048 43.2769L67.9604 43.244C67.9617 43.2464 67.9819 43.2791 68.0171 43.3407C68.1501 43.5703 68.5033 44.1955 68.9107 45.0359C68.9289 45.0739 68.948 45.113 68.9665 45.1522C69.1816 45.6015 69.4097 46.1068 69.6266 46.6432C69.6813 46.7779 69.7336 46.9111 69.7836 47.043C69.7998 47.0835 69.8153 47.1242 69.8301 47.1645C70.0412 47.7245 70.2149 48.2556 70.3512 48.7579Z" fill="white"/>
<path d="M68.9107 45.0359C68.8703 45.0527 68.8292 45.0696 68.7872 45.0855C68.673 45.1287 68.5568 45.166 68.4388 45.1974C67.9363 45.3316 67.4101 45.3515 66.8988 45.2559C66.8813 45.296 66.8639 45.3361 66.8459 45.3769C67.3851 45.4826 67.9414 45.4639 68.4722 45.3223C68.5981 45.2888 68.7221 45.2488 68.8438 45.2022C68.8852 45.1865 68.9263 45.1696 68.9666 45.1522C69.2996 45.0107 69.6092 44.8195 69.8848 44.5852C69.8487 44.558 69.8134 44.5313 69.7789 44.505C69.5173 44.7237 69.2247 44.9026 68.9107 45.0359Z" fill="white"/>
<path d="M69.7837 47.043C69.7412 47.0569 69.6983 47.0697 69.6551 47.0811C69.6421 47.0853 69.6283 47.0889 69.6152 47.0924C69.0705 47.2371 68.4988 47.2482 67.9489 47.1249C67.399 47.0015 66.8871 46.7473 66.4569 46.384C66.4417 46.4275 66.4265 46.471 66.4121 46.5149C66.8568 46.8801 67.3824 47.1342 67.9452 47.2564C68.508 47.3785 69.0919 47.3652 69.6485 47.2173C69.666 47.2127 69.6836 47.208 69.7009 47.2027C69.7446 47.1905 69.7875 47.1778 69.8302 47.1644C70.4896 46.9527 71.074 46.556 71.5134 46.0217C71.4835 45.9901 71.4536 45.9586 71.4231 45.9272C70.9971 46.4504 70.4274 46.8381 69.7837 47.043Z" fill="white"/>
<path d="M70.3512 48.758C70.3084 48.7734 70.2652 48.7875 70.2219 48.801C70.1754 48.8154 70.1288 48.8291 70.0818 48.8416C69.3497 49.0351 68.5744 48.9869 67.8721 48.7041C67.1697 48.4213 66.5781 47.9191 66.1858 47.2728C66.1711 47.3309 66.1562 47.3884 66.1428 47.4461C66.5607 48.0839 67.1695 48.5741 67.8826 48.847C68.5957 49.1199 69.3769 49.1617 70.1152 48.9665C70.1621 48.954 70.2089 48.9409 70.2546 48.9261C70.2987 48.9131 70.3419 48.8989 70.3849 48.8842C71.2518 48.5799 71.9704 47.9584 72.3952 47.1455C72.3697 47.1028 72.3425 47.0612 72.3151 47.0189C71.9121 47.8313 71.2076 48.4551 70.3512 48.758Z" fill="white"/>
<path d="M65.7153 3.42576L64.5046 5.32467L65.2098 2.85263C63.7208 1.30267 61.6595 0.168823 61.6595 0.168823C61.6595 0.168823 59.1213 4.33037 59.8045 6.89029C60.4876 9.45021 62.2516 9.93888 64.1334 9.4391C66.0152 8.93933 67.3021 7.64035 66.619 5.08044C66.4669 4.51065 66.1366 3.95128 65.7153 3.42576Z" fill="#F2F2F2"/>
<path d="M64.1134 5.51392L64.1471 5.6401C64.531 7.10882 64.5884 8.31906 64.3169 9.25409C64.3132 9.26779 64.3087 9.28103 64.305 9.29473L64.2417 9.27609L64.181 9.25741C64.4886 8.2439 64.3513 6.96321 64.0168 5.68207C64.0064 5.64067 63.9959 5.59865 63.9841 5.55697C63.8377 5.01588 63.6583 4.47687 63.463 3.95879C63.4483 3.91856 63.4327 3.87787 63.4172 3.83718C63.1559 3.15468 62.8704 2.51206 62.6059 1.95818C62.5874 1.91895 62.5683 1.87988 62.5493 1.84144C62.0978 0.905779 61.715 0.242844 61.629 0.0964429C61.6188 0.078407 61.6129 0.0686219 61.6116 0.0662909L61.6666 0.0336251L61.667 0.0328332L61.7226 0C61.7239 0.00233412 61.7441 0.0351147 61.7793 0.0966731C61.9123 0.326243 62.2656 0.951525 62.6729 1.7919C62.6911 1.82988 62.7102 1.86895 62.7287 1.90818C62.9438 2.35744 63.1719 2.86279 63.3888 3.3992C63.4435 3.53384 63.4958 3.66711 63.5458 3.799C63.562 3.83952 63.5775 3.88022 63.5923 3.92044C63.8034 4.48046 63.9771 5.01162 64.1134 5.51392Z" fill="white"/>
<path d="M62.6729 1.79192C62.6325 1.80869 62.5914 1.82561 62.5494 1.84146C62.4353 1.88467 62.319 1.92202 62.2011 1.95337C61.6986 2.08754 61.1723 2.10753 60.661 2.01186C60.6435 2.05195 60.6261 2.09205 60.6082 2.13293C61.1473 2.23856 61.7036 2.21987 62.2344 2.0783C62.3603 2.04482 62.4843 2.00473 62.606 1.95819C62.6474 1.94251 62.6885 1.92558 62.7288 1.90819C63.0619 1.76667 63.3715 1.5755 63.647 1.34123C63.6109 1.31402 63.5756 1.28728 63.5411 1.26099C63.2795 1.47965 62.987 1.65855 62.6729 1.79192Z" fill="white"/>
<path d="M63.5459 3.79896C63.5034 3.81293 63.4605 3.82565 63.4173 3.83713C63.4043 3.84124 63.3905 3.8449 63.3774 3.8484C62.8327 3.99307 62.261 4.0042 61.7111 3.88084C61.1612 3.75748 60.6493 3.50328 60.2192 3.13993C60.2039 3.18344 60.1887 3.22695 60.1743 3.27091C60.6191 3.63604 61.1446 3.89021 61.7074 4.01236C62.2702 4.13451 62.8541 4.12113 63.4107 3.97333C63.4282 3.96867 63.4458 3.96402 63.4632 3.95873C63.5068 3.94647 63.5497 3.93374 63.5924 3.9204C64.2518 3.70867 64.8362 3.31195 65.2756 2.77766C65.2457 2.74613 65.2158 2.71459 65.1853 2.68323C64.7593 3.20636 64.1896 3.59411 63.5459 3.79896Z" fill="white"/>
<path d="M64.1134 5.51397C64.0706 5.52936 64.0274 5.5435 63.9841 5.55702C63.9376 5.57136 63.891 5.58508 63.844 5.59756C63.1119 5.7911 62.3366 5.74286 61.6343 5.46006C60.9319 5.17726 60.3403 4.67511 59.948 4.0288C59.9333 4.08689 59.9185 4.14434 59.905 4.20209C60.323 4.83987 60.9317 5.33004 61.6448 5.60298C62.3579 5.87591 63.1391 5.91773 63.8774 5.72249C63.9243 5.71002 63.9711 5.69692 64.0168 5.68212C64.0609 5.66906 64.1041 5.65492 64.1471 5.64015C65.014 5.33592 65.7326 4.71441 66.1574 3.90148C66.1319 3.85874 66.1047 3.81714 66.0773 3.7749C65.6743 4.58731 64.9698 5.2111 64.1134 5.51397Z" fill="white"/>
<path d="M32.4215 49.8572L30.1657 49.8674L32.6316 49.1231C33.134 47.0356 32.976 44.6926 32.976 44.6926C32.976 44.6926 28.0945 44.8116 26.3048 46.7687C24.5152 48.7257 25.0565 50.4705 26.4951 51.7797C27.9337 53.089 29.7248 53.4671 31.5145 51.51C31.9128 51.0744 32.206 50.4948 32.4215 49.8572Z" fill="#F2F2F2"/>
<path d="M29.7946 49.6414L29.7064 49.7379C28.6752 50.854 27.6856 51.5563 26.7503 51.8338C26.7368 51.8381 26.7232 51.8415 26.7096 51.8458L26.6911 51.7826L26.6741 51.7216C27.695 51.4319 28.7009 50.6244 29.6006 49.6512C29.6299 49.6201 29.6596 49.5886 29.6884 49.5561C30.0656 49.1408 30.4232 48.6989 30.7546 48.255C30.7805 48.2208 30.8064 48.1858 30.8324 48.1507C31.2667 47.5626 31.6544 46.9756 31.9785 46.4542C32.0016 46.4175 32.0242 46.3803 32.0464 46.3436C32.5914 45.4589 32.9436 44.7793 33.0206 44.628C33.0303 44.6097 33.0353 44.5994 33.0366 44.597L33.0939 44.6255L33.0948 44.6255L33.1525 44.6544C33.1512 44.6568 33.1345 44.6914 33.1016 44.7542C32.9799 44.9899 32.6435 45.6244 32.1549 46.4205C32.1327 46.4563 32.1101 46.4935 32.0871 46.5303C31.8244 46.9536 31.5215 47.4182 31.1864 47.8902C31.1024 48.0089 31.0183 48.1249 30.9341 48.2381C30.9086 48.2735 30.8827 48.3086 30.8568 48.3427C30.4986 48.8226 30.1445 49.2555 29.7946 49.6414Z" fill="white"/>
<path d="M32.1551 46.4205C32.1191 46.3956 32.0826 46.3703 32.0465 46.3436C31.9484 46.2711 31.8541 46.1937 31.7639 46.1117C31.3791 45.7624 31.0778 45.3315 30.8821 44.8507C30.8389 44.8577 30.7956 44.8647 30.7515 44.8718C30.9538 45.3814 31.2702 45.8382 31.6765 46.2072C31.7728 46.2948 31.8737 46.3772 31.9787 46.4542C32.0143 46.4805 32.0508 46.5058 32.0872 46.5302C32.3866 46.7333 32.7152 46.8898 33.0617 46.9944C33.0651 46.9494 33.0686 46.9054 33.0721 46.8622C32.7463 46.7608 32.4373 46.612 32.1551 46.4205Z" fill="white"/>
<path d="M30.9343 48.238C30.8995 48.2099 30.8656 48.1808 30.8326 48.1507C30.8221 48.142 30.8116 48.1325 30.8015 48.1233C30.3851 47.7443 30.0667 47.2705 29.8735 46.7423C29.6803 46.2141 29.618 45.647 29.6919 45.0896C29.647 45.1003 29.6021 45.1111 29.5572 45.1228C29.4897 45.6934 29.5594 46.2719 29.7606 46.8103C29.9618 47.3487 30.2887 47.8315 30.7142 48.2188C30.7276 48.231 30.741 48.2432 30.7548 48.2549C30.7888 48.285 30.8227 48.3141 30.857 48.3427C31.392 48.7817 32.0424 49.0578 32.7305 49.1378C32.741 49.0957 32.7514 49.0535 32.7614 49.011C32.0899 48.9362 31.455 48.6676 30.9343 48.238Z" fill="white"/>
<path d="M29.7948 49.6414C29.7587 49.6138 29.7234 49.5852 29.6886 49.5562C29.6514 49.5249 29.6146 49.4932 29.5787 49.4605C29.0198 48.9506 28.6414 48.2739 28.5003 47.5315C28.3591 46.7892 28.4628 46.0212 28.7959 45.3425C28.7389 45.3616 28.6825 45.3802 28.6265 45.4002C28.3145 46.0956 28.2302 46.8715 28.3854 47.6176C28.5407 48.3636 28.9277 49.0419 29.4914 49.556C29.5273 49.5887 29.5636 49.6209 29.6008 49.6512C29.6357 49.6812 29.6709 49.7098 29.7066 49.7379C30.4317 50.3011 31.3443 50.5683 32.2595 50.4854C32.2818 50.4409 32.3022 50.3956 32.323 50.3498C31.42 50.4507 30.5131 50.1966 29.7948 49.6414Z" fill="white"/>
<path d="M24.9323 51.623L26.2285 51.6229L26.8451 46.6353L24.9321 46.6354L24.9323 51.623Z" fill="#FFB6B6"/>
<path d="M24.6018 51.2008L27.1545 51.2007H27.1546C27.586 51.2007 27.9997 51.3717 28.3048 51.676C28.6099 51.9804 28.7813 52.3931 28.7813 52.8235V52.8763L24.6019 52.8764L24.6018 51.2008Z" fill="#2F2E41"/>
<path d="M14.677 51.623L15.9732 51.6229L16.5898 46.6353L14.6768 46.6354L14.677 51.623Z" fill="#FFB6B6"/>
<path d="M14.3464 51.2008L16.8991 51.2007H16.8992C17.3306 51.2007 17.7444 51.3717 18.0494 51.676C18.3545 51.9804 18.5259 52.3931 18.5259 52.8235V52.8763L14.3465 52.8764L14.3464 51.2008Z" fill="#2F2E41"/>
<path d="M16.8753 31.1357L16.0017 31.9379L15.017 41.6283L14.3542 49.3444L16.3572 49.6139L21.2155 36.4299L24.7704 49.5514L27.167 49.6139L25.5763 32.4858L16.8753 31.1357Z" fill="#2F2E41"/>
<path d="M21.097 16.8067C22.4713 16.8067 23.5854 15.6953 23.5854 14.3242C23.5854 12.9532 22.4713 11.8418 21.097 11.8418C19.7227 11.8418 18.6086 12.9532 18.6086 14.3242C18.6086 15.6953 19.7227 16.8067 21.097 16.8067Z" fill="#FFB9B9"/>
<path d="M19.8235 13.1716C19.8235 13.1716 19.5269 13.8121 20.7135 13.5559C20.7135 13.5559 21.1585 13.8121 21.1585 13.4278C21.1585 13.4278 21.7519 14.0683 21.9002 13.684C22.0485 13.2997 22.3452 13.8121 22.3452 13.8121L22.6419 13.1717L22.9385 13.5559H23.9769C23.9769 13.5559 24.2735 10.994 20.7135 11.2502C17.1535 11.5064 18.9049 15.5655 18.9049 15.5655C18.9049 15.5655 18.9335 14.8369 19.2302 15.2212C19.5269 15.6055 19.8235 13.1716 19.8235 13.1716Z" fill="#2F2E41"/>
<path d="M22.993 17.6168L19.4841 17.3977L16.3572 18.2252L16.8312 26.2636L16.0017 31.9377C16.0017 31.9377 20.5526 34.713 25.7183 32.5288L25.2277 31.2411C25.2277 31.2411 25.2108 29.2704 24.7963 28.8846C24.3818 28.4988 24.4149 25.3179 24.4149 25.3179L25.9553 19.4073L22.993 17.6168Z" fill="#3F3D56"/>
<path d="M17.1924 18.4789L16.3571 18.2252C16.3571 18.2252 15.0562 18.2685 14.3798 19.7449C13.7034 21.2212 13.2805 23.3307 13.2805 23.3307L17.5766 23.4856L17.1924 18.4789Z" fill="#3F3D56"/>
<path d="M27.1641 32.5707L27.025 23.858L25.1689 24.1358L25.5789 32.3905C25.4102 32.5287 25.286 32.7134 25.2218 32.9215C25.1577 33.1297 25.1564 33.3521 25.2182 33.561C25.28 33.7699 25.402 33.956 25.5692 34.096C25.7363 34.2361 25.9412 34.324 26.1581 34.3486C26.375 34.3733 26.5943 34.3337 26.7888 34.2347C26.9833 34.1358 27.1442 33.9818 27.2515 33.7922C27.3588 33.6025 27.4078 33.3855 27.3922 33.1683C27.3766 32.9511 27.2973 32.7432 27.1641 32.5707Z" fill="#FFB9B9"/>
<path d="M24.9105 20.1665L25.9553 19.4073C25.9553 19.4073 27.963 20.9737 27.9698 24.4199L25.169 25.0976L23.5854 22.8253L24.9105 20.1665Z" fill="#3F3D56"/>
<path d="M81.2578 51.6181L82.554 51.618L83.1706 46.6304L81.2576 46.6305L81.2578 51.6181Z" fill="#9E616A"/>
<path d="M80.927 51.1959L83.4797 51.1958C83.9111 51.1958 84.3249 51.3668 84.63 51.6711C84.9351 51.9755 85.1065 52.3882 85.1065 52.8186V52.8714L80.9271 52.8715L80.927 51.1959Z" fill="#2F2E41"/>
<path d="M73.5857 50.5184L74.8215 50.9085L76.9173 46.3386L75.0934 45.7631L73.5857 50.5184Z" fill="#9E616A"/>
<path d="M73.3981 50.0165L75.8319 50.7845C76.2433 50.9143 76.5862 51.2018 76.785 51.5838C76.9839 51.9658 77.0225 52.4109 76.8924 52.8212L76.8764 52.8715L72.8916 51.6141L73.3981 50.0165Z" fill="#2F2E41"/>
<path d="M76.5043 28.839L75.7851 30.8628L75.7647 41.7885L73.7249 49.2689L76.2288 49.966L78.9947 42.9127L79.8819 36.7174L81.051 42.9487L80.89 50.3551H83.5172L83.7155 38.9418C83.7712 35.7364 83.209 32.5503 82.0595 29.5566L76.5043 28.839Z" fill="#2F2E41"/>
<path d="M75.6477 20.6411H79.8942L81.6685 22.4113L82.1986 29.7281L75.785 30.7576L73.7249 23.7764L74.8468 20.8093L75.6477 20.6411Z" fill="#F5610C"/>
<path d="M74.1204 23.8462L67.5823 21.3922L67.4121 20.3777L71.5354 16.8971L72.9079 17.924L70.4203 20.6411L74.8467 20.8093L74.1204 23.8462Z" fill="#F5610C"/>
<path d="M72.3285 18.3208C72.9124 18.3208 73.3858 17.8485 73.3858 17.266C73.3858 16.6835 72.9124 16.2113 72.3285 16.2113C71.7446 16.2113 71.2712 16.6835 71.2712 17.266C71.2712 17.8485 71.7446 18.3208 72.3285 18.3208Z" fill="#9E616A"/>
<path d="M74.7806 18.5948L75.2583 16.4456C75.4287 15.6825 75.8958 15.018 76.557 14.5982C77.2183 14.1785 78.0195 14.0378 78.7847 14.2071C79.5498 14.3763 80.2163 14.8417 80.6376 15.501C81.059 16.1603 81.2008 16.9594 81.0318 17.7229L80.554 19.8721C80.5311 19.9746 80.4684 20.0639 80.3796 20.1203C80.2907 20.1768 80.1831 20.1957 80.0803 20.1731L75.0823 19.0674C74.9796 19.0445 74.8901 18.9819 74.8335 18.8933C74.7769 18.8047 74.7579 18.6973 74.7806 18.5948Z" fill="#2F2E41"/>
<path d="M77.4684 19.4903C78.6657 19.4903 79.6363 18.522 79.6363 17.3276C79.6363 16.1332 78.6657 15.1649 77.4684 15.1649C76.2711 15.1649 75.3005 16.1332 75.3005 17.3276C75.3005 18.522 76.2711 19.4903 77.4684 19.4903Z" fill="#9E616A"/>
<path d="M74.5371 16.4664C74.6721 15.8626 75.0416 15.3368 75.5646 15.0044C76.0877 14.6721 76.7215 14.5603 77.3271 14.6935L77.758 14.7888C78.3632 14.9235 78.8903 15.2921 79.2234 15.8139C79.5566 16.3357 79.6687 16.968 79.5351 17.5721L79.5255 17.6151L78.615 17.4137L78.4973 16.4774L78.2423 17.3312L77.7717 17.2271L77.7123 16.7547L77.5837 17.1855L74.5276 16.5094L74.5371 16.4664Z" fill="#2F2E41"/>
<path d="M76.726 19.6846C76.6961 19.6174 76.6859 19.5431 76.6964 19.4704C76.707 19.3976 76.7379 19.3293 76.7856 19.2733C77.4348 18.5079 78.43 17.0485 77.8009 15.8735L77.7557 15.7891L80.2191 16.3341L79.3989 20.0237L77.0735 19.9225C77.05 19.9215 77.0265 19.9184 77.0035 19.9133C76.9424 19.8998 76.8854 19.8721 76.8372 19.8323C76.789 19.7925 76.7509 19.7419 76.726 19.6846Z" fill="#2F2E41"/>
<path d="M103.874 52.9999H0.125765C0.0924415 52.9999 0.0605154 52.9866 0.0369859 52.963C0.0134564 52.9395 0.000244141 52.9076 0.000244141 52.8744C0.000244141 52.8411 0.0134564 52.8092 0.0369859 52.7857C0.0605154 52.7622 0.0924415 52.7489 0.125765 52.7488H103.874C103.907 52.7488 103.939 52.762 103.963 52.7856C103.987 52.8091 104 52.8411 104 52.8744C104 52.9077 103.987 52.9396 103.963 52.9632C103.939 52.9867 103.907 52.9999 103.874 52.9999Z" fill="#CACACA"/>
<path d="M52.4357 21.9089H18.8873C18.6326 21.9089 18.3804 21.959 18.1451 22.0562C17.9099 22.1534 17.6961 22.2959 17.516 22.4756C17.3359 22.6552 17.1931 22.8685 17.0956 23.1032C16.9982 23.3379 16.948 23.5895 16.948 23.8436V31.8928C16.948 32.1468 16.9982 32.3984 17.0956 32.6331C17.1931 32.8678 17.3359 33.0811 17.516 33.2608C17.6961 33.4404 17.9099 33.5829 18.1451 33.6801C18.3804 33.7774 18.6326 33.8274 18.8873 33.8274H19.3797V35.2816C19.3797 35.3699 19.4059 35.4561 19.4551 35.5295C19.5042 35.6029 19.5741 35.6601 19.6558 35.6938C19.7375 35.7276 19.8274 35.7364 19.9142 35.7192C20.0009 35.702 20.0806 35.6595 20.1432 35.5971L21.9171 33.8274H52.4357C52.6904 33.8274 52.9426 33.7774 53.1778 33.6801C53.4131 33.5829 53.6269 33.4404 53.807 33.2608C53.9871 33.0811 54.1299 32.8678 54.2274 32.6331C54.3248 32.3984 54.375 32.1468 54.375 31.8928V23.8436C54.375 23.5895 54.3248 23.3379 54.2274 23.1032C54.1299 22.8685 53.9871 22.6552 53.807 22.4756C53.6269 22.2959 53.4131 22.1534 53.1778 22.0562C52.9425 21.959 52.6904 21.9089 52.4357 21.9089Z" fill="#E6E6E6"/>
<path d="M44.3673 32.8254H18.8873C18.6394 32.8252 18.4018 32.7268 18.2265 32.552C18.0513 32.3771 17.9527 32.14 17.9524 31.8928V23.8436C17.9527 23.5964 18.0513 23.3593 18.2265 23.1845C18.4018 23.0096 18.6394 22.9113 18.8873 22.911H52.4357C52.6835 22.9113 52.9212 23.0096 53.0964 23.1845C53.2717 23.3593 53.3703 23.5964 53.3706 23.8437C53.3679 26.225 52.4184 28.508 50.7306 30.1918C49.0427 31.8756 46.7543 32.8228 44.3673 32.8254Z" fill="white"/>
<path d="M42.7804 24.6512H28.6131C28.2628 24.6512 27.9788 24.9346 27.9788 25.2841V25.2841C27.9788 25.6336 28.2628 25.9169 28.6131 25.9169H42.7804C43.1307 25.9169 43.4147 25.6336 43.4147 25.2841C43.4147 24.9346 43.1307 24.6512 42.7804 24.6512Z" fill="#F5610C"/>
<path d="M45.7936 27.1826H25.5999C25.2496 27.1826 24.9656 27.4659 24.9656 27.8155V27.8155C24.9656 28.165 25.2496 28.4483 25.5999 28.4483H45.7936C46.1439 28.4483 46.4279 28.165 46.4279 27.8155C46.4279 27.4659 46.1439 27.1826 45.7936 27.1826Z" fill="#E6E6E6"/>
<path d="M45.7936 29.714H25.5999C25.2496 29.714 24.9656 29.9973 24.9656 30.3468V30.3468C24.9656 30.6963 25.2496 30.9797 25.5999 30.9797H45.7936C46.1439 30.9797 46.4279 30.6963 46.4279 30.3468C46.4279 29.9973 46.1439 29.714 45.7936 29.714Z" fill="#E6E6E6"/>
<path d="M100.232 27.5134H75.971C75.7869 27.5134 75.6045 27.5496 75.4343 27.6199C75.2642 27.6902 75.1096 27.7933 74.9794 27.9232C74.8491 28.0531 74.7458 28.2074 74.6754 28.3771C74.6049 28.5468 74.5686 28.7288 74.5686 28.9125V34.7334C74.5686 34.9171 74.6049 35.099 74.6754 35.2688C74.7458 35.4385 74.8491 35.5927 74.9794 35.7227C75.1096 35.8526 75.2642 35.9556 75.4343 36.0259C75.6045 36.0963 75.7869 36.1324 75.971 36.1324H76.3271V37.1841C76.3271 37.2479 76.3461 37.3103 76.3816 37.3633C76.4172 37.4164 76.4677 37.4578 76.5268 37.4822C76.5859 37.5066 76.6509 37.513 76.7136 37.5005C76.7764 37.4881 76.834 37.4573 76.8792 37.4122L78.1621 36.1324H100.232C100.416 36.1324 100.599 36.0963 100.769 36.0259C100.939 35.9556 101.093 35.8526 101.224 35.7227C101.354 35.5928 101.457 35.4385 101.528 35.2688C101.598 35.099 101.634 34.9171 101.634 34.7334V28.9125C101.634 28.7288 101.598 28.5468 101.528 28.3771C101.457 28.2074 101.354 28.0531 101.224 27.9232C101.093 27.7933 100.939 27.6902 100.769 27.6199C100.599 27.5496 100.416 27.5134 100.232 27.5134Z" fill="#E6E6E6"/>
<path d="M100.232 35.4225H75.971C75.7879 35.4222 75.6123 35.3496 75.4828 35.2204C75.3533 35.0912 75.2805 34.9161 75.2803 34.7334V28.9125C75.2805 28.7298 75.3533 28.5546 75.4828 28.4254C75.6123 28.2963 75.7879 28.2236 75.971 28.2234H94.3973C96.1273 28.2254 97.786 28.9119 99.0093 30.1323C100.233 31.3527 100.921 33.0074 100.923 34.7334C100.923 34.9161 100.85 35.0912 100.72 35.2204C100.591 35.3496 100.415 35.4222 100.232 35.4225Z" fill="white"/>
<path d="M93.2497 29.4966H83.0044C82.751 29.4966 82.5457 29.7015 82.5457 29.9542C82.5457 30.207 82.751 30.4119 83.0044 30.4119H93.2497C93.503 30.4119 93.7084 30.207 93.7084 29.9542C93.7084 29.7015 93.503 29.4966 93.2497 29.4966Z" fill="#F5610C"/>
<path d="M95.4288 31.3271H80.8254C80.5721 31.3271 80.3667 31.532 80.3667 31.7848C80.3667 32.0375 80.5721 32.2424 80.8254 32.2424H95.4288C95.6821 32.2424 95.8875 32.0375 95.8875 31.7848C95.8875 31.532 95.6821 31.3271 95.4288 31.3271Z" fill="#E6E6E6"/>
<path d="M95.4288 33.1577H80.8254C80.5721 33.1577 80.3667 33.3626 80.3667 33.6154C80.3667 33.8681 80.5721 34.073 80.8254 34.073H95.4288C95.6821 34.073 95.8875 33.8681 95.8875 33.6154C95.8875 33.3626 95.6821 33.1577 95.4288 33.1577Z" fill="#E6E6E6"/>
<path d="M48.4823 7.05164H72.7433C72.9274 7.05164 73.1098 7.08782 73.2799 7.15813C73.4501 7.22844 73.6047 7.3315 73.7349 7.46141C73.8651 7.59133 73.9684 7.74556 74.0389 7.9153C74.1094 8.08505 74.1457 8.26697 74.1457 8.4507V14.2716C74.1457 14.4553 74.1094 14.6372 74.0389 14.807C73.9684 14.9767 73.8651 15.131 73.7349 15.2609C73.6047 15.3908 73.4501 15.4938 73.2799 15.5642C73.1098 15.6345 72.9274 15.6707 72.7433 15.6707H72.3872V16.7223C72.3872 16.7861 72.3682 16.8485 72.3326 16.9015C72.2971 16.9546 72.2466 16.996 72.1875 17.0204C72.1284 17.0448 72.0634 17.0512 72.0006 17.0387C71.9379 17.0263 71.8803 16.9956 71.835 16.9504L70.5522 15.6707H48.4823C48.2981 15.6707 48.1157 15.6345 47.9456 15.5642C47.7754 15.4938 47.6208 15.3908 47.4906 15.2609C47.3604 15.131 47.2571 14.9767 47.1866 14.807C47.1161 14.6372 47.0798 14.4553 47.0798 14.2716V8.4507C47.0798 8.26697 47.1161 8.08505 47.1866 7.9153C47.2571 7.74556 47.3604 7.59133 47.4906 7.46141C47.6208 7.3315 47.7754 7.22844 47.9456 7.15813C48.1157 7.08782 48.2981 7.05164 48.4823 7.05164Z" fill="#E6E6E6"/>
<path d="M72.7432 14.9606H54.3171C52.587 14.9587 50.9284 14.2722 49.705 13.0518C48.4816 11.8313 47.7935 10.1767 47.7915 8.45073C47.7917 8.26803 47.8645 8.09287 47.994 7.96368C48.1235 7.83449 48.2991 7.76181 48.4822 7.7616H72.7432C72.9264 7.7618 73.1019 7.83446 73.2314 7.96365C73.3609 8.09283 73.4338 8.26798 73.434 8.45067V14.2715C73.4338 14.4542 73.3609 14.6294 73.2314 14.7586C73.1019 14.8877 72.9264 14.9604 72.7432 14.9606Z" fill="white"/>
<path d="M55.4647 9.95007L65.71 9.95007C65.9633 9.95007 66.1687 9.74518 66.1687 9.49243C66.1687 9.23968 65.9633 9.03478 65.71 9.03478L55.4647 9.03478C55.2113 9.03478 55.006 9.23968 55.006 9.49243C55.006 9.74518 55.2113 9.95007 55.4647 9.95007Z" fill="#F5610C"/>
<path d="M53.2856 11.7806L67.8889 11.7806C68.1423 11.7806 68.3477 11.5757 68.3477 11.323C68.3477 11.0702 68.1423 10.8653 67.8889 10.8653L53.2856 10.8653C53.0322 10.8653 52.8268 11.0702 52.8268 11.323C52.8268 11.5757 53.0322 11.7806 53.2856 11.7806Z" fill="#E6E6E6"/>
<path d="M53.2856 13.6112L67.8889 13.6112C68.1423 13.6112 68.3477 13.4063 68.3477 13.1536C68.3477 12.9008 68.1423 12.6959 67.8889 12.6959L53.2856 12.6959C53.0322 12.6959 52.8268 12.9008 52.8268 13.1536C52.8268 13.4063 53.0322 13.6112 53.2856 13.6112Z" fill="#E6E6E6"/>
<path d="M20.5228 21.7486C20.5228 21.4549 20.4059 21.1732 20.1977 20.9655C19.9895 20.7578 19.7071 20.6411 19.4127 20.6411C19.1183 20.6411 18.8359 20.7578 18.6277 20.9655C18.4195 21.1732 18.3026 21.4549 18.3026 21.7486C18.3026 21.7594 18.3039 21.7699 18.3042 21.7806L16.3572 23.723L16.5052 23.3834L14.285 23.2779L13.9611 25.6165C13.9327 25.8324 13.9722 26.0517 14.0742 26.2443C14.1761 26.4368 14.3354 26.593 14.5302 26.6913C14.7249 26.7897 14.9454 26.8253 15.1613 26.7932C15.3772 26.7611 15.5778 26.663 15.7354 26.5124L19.5732 22.8432C19.8369 22.8049 20.0779 22.6732 20.2523 22.4722C20.4266 22.2712 20.5227 22.0144 20.5228 21.7486Z" fill="#FFB9B9"/>
<path d="M79.7253 20.6854L86.6412 21.6664L87.0279 22.6199L83.7594 26.9098L82.1965 26.2043L84.034 23.0136L79.6765 23.8072L79.7253 20.6854Z" fill="#F5610C"/>
<path d="M82.7953 28.1297C83.3792 28.1297 83.8526 27.6575 83.8526 27.075C83.8526 26.4925 83.3792 26.0203 82.7953 26.0203C82.2114 26.0203 81.738 26.4925 81.738 27.075C81.738 27.6575 82.2114 28.1297 82.7953 28.1297Z" fill="#9E616A"/>
</g>
<defs>
<clipPath id="clip0_110_13126">
<rect width="104" height="53" fill="white"/>
</clipPath>
</defs>
</svg>
